<svg width="19" height="21" viewBox="0 0 19 21" fill="none" xmlns="http://www.w3.org/2000/svg">
<path id="Icon" d="M18.0426 8.57447H1M13.3085 1V4.78723M5.73404 1V4.78723M8.10106 12.3617L9.52128 11.4149V16.1489M8.33777 16.1489H10.7048M5.54468 19.9362H13.4979C15.0887 19.9362 15.8841 19.9362 16.4917 19.6266C17.0261 19.3543 17.4606 18.9197 17.733 18.3853C18.0426 17.7777 18.0426 16.9823 18.0426 15.3915V7.4383C18.0426 5.84751 18.0426 5.05212 17.733 4.44452C17.4606 3.91006 17.0261 3.47553 16.4917 3.2032C15.8841 2.89362 15.0887 2.89362 13.4979 2.89362H5.54468C3.95389 2.89362 3.1585 2.89362 2.5509 3.2032C2.01644 3.47553 1.58191 3.91006 1.30959 4.44452C1 5.05212 1 5.84751 1 7.4383V15.3915C1 16.9823 1 17.7777 1.30959 18.3853C1.58191 18.9197 2.01644 19.3543 2.5509 19.6266C3.1585 19.9362 3.95389 19.9362 5.54468 19.9362Z" stroke="#1F887D" stroke-width="1.42021" stroke-linecap="round" stroke-linejoin="round"/>
</svg>
