<svg width="26" height="26" viewBox="0 0 26 26" fill="none" xmlns="http://www.w3.org/2000/svg">
<g id="user-right-01">
<path id="Icon" d="M20.5832 22.75L23.8332 19.5M23.8332 19.5L20.5832 16.25M23.8332 19.5H17.3332M12.9998 16.7917H8.12484C6.61298 16.7917 5.85705 16.7917 5.24193 16.9783C3.857 17.3984 2.77321 18.4822 2.3531 19.8671C2.1665 20.4822 2.1665 21.2381 2.1665 22.75M15.7082 8.125C15.7082 10.8174 13.5256 13 10.8332 13C8.14078 13 5.95817 10.8174 5.95817 8.125C5.95817 5.43261 8.14078 3.25 10.8332 3.25C13.5256 3.25 15.7082 5.43261 15.7082 8.125Z" stroke="white" stroke-width="2.16667" stroke-linecap="round" stroke-linejoin="round"/>
</g>
</svg>
